<svg width="245" height="80" viewBox="0 0 245 80" fill="none" xmlns="http://www.w3.org/2000/svg">
<circle cx="40" cy="40" r="40" fill="#9966CC"/>
<path d="M42.2551 16H35.6429V26.4388H17V33.051H35.6429V48.2041V63.3571H43.1735V52L63 56.5V49L53 47L48.6085 46.1062C45.392 45.4515 43 42.7427 42.7484 39.4699L42.2551 33.051H59.1531V26.4388H42.2551V16Z" fill="white"/>
<path d="M103.266 34.5312V52H98.5V34.5312H103.266ZM100.891 27.6875C101.599 27.6875 102.208 27.8542 102.719 28.1875C103.229 28.5104 103.484 29.1198 103.484 30.0156C103.484 30.901 103.229 31.5156 102.719 31.8594C102.208 32.1927 101.599 32.3594 100.891 32.3594C100.172 32.3594 99.5573 32.1927 99.0469 31.8594C98.5469 31.5156 98.2969 30.901 98.2969 30.0156C98.2969 29.1198 98.5469 28.5104 99.0469 28.1875C99.5573 27.8542 100.172 27.6875 100.891 27.6875ZM117.469 52H112.625V33.1875H106.422V29.1562H123.672V33.1875H117.469V52ZM134.016 34.2031C135.63 34.2031 137.021 34.5156 138.188 35.1406C139.354 35.7552 140.255 36.651 140.891 37.8281C141.526 39.0052 141.844 40.4427 141.844 42.1406V44.4531H130.578C130.63 45.7969 131.031 46.8542 131.781 47.625C132.542 48.3854 133.594 48.7656 134.938 48.7656C136.052 48.7656 137.073 48.651 138 48.4219C138.927 48.1927 139.88 47.849 140.859 47.3906V51.0781C139.995 51.5052 139.089 51.8177 138.141 52.0156C137.203 52.2135 136.062 52.3125 134.719 52.3125C132.969 52.3125 131.417 51.9896 130.062 51.3438C128.719 50.6979 127.661 49.7135 126.891 48.3906C126.13 47.0677 125.75 45.401 125.75 43.3906C125.75 41.349 126.094 39.651 126.781 38.2969C127.479 36.9323 128.448 35.9115 129.688 35.2344C130.927 34.5469 132.37 34.2031 134.016 34.2031ZM134.047 37.5938C133.12 37.5938 132.349 37.8906 131.734 38.4844C131.13 39.0781 130.781 40.0104 130.688 41.2812H137.375C137.365 40.5729 137.234 39.9427 136.984 39.3906C136.745 38.8385 136.38 38.401 135.891 38.0781C135.411 37.7552 134.797 37.5938 134.047 37.5938ZM157.906 46.8125C157.906 48 157.625 49.0052 157.062 49.8281C156.51 50.6406 155.682 51.2604 154.578 51.6875C153.474 52.1042 152.099 52.3125 150.453 52.3125C149.234 52.3125 148.188 52.2344 147.312 52.0781C146.448 51.9219 145.573 51.6615 144.688 51.2969V47.3594C145.635 47.7865 146.651 48.1406 147.734 48.4219C148.828 48.6927 149.786 48.8281 150.609 48.8281C151.536 48.8281 152.198 48.6927 152.594 48.4219C153 48.1406 153.203 47.776 153.203 47.3281C153.203 47.0365 153.12 46.776 152.953 46.5469C152.797 46.3073 152.453 46.0417 151.922 45.75C151.391 45.4479 150.557 45.0573 149.422 44.5781C148.328 44.1198 147.427 43.6562 146.719 43.1875C146.021 42.7188 145.5 42.1667 145.156 41.5312C144.823 40.8854 144.656 40.0677 144.656 39.0781C144.656 37.4635 145.281 36.25 146.531 35.4375C147.792 34.6146 149.474 34.2031 151.578 34.2031C152.661 34.2031 153.693 34.3125 154.672 34.5312C155.661 34.75 156.677 35.099 157.719 35.5781L156.281 39.0156C155.417 38.6406 154.599 38.3333 153.828 38.0938C153.068 37.8542 152.292 37.7344 151.5 37.7344C150.802 37.7344 150.276 37.8281 149.922 38.0156C149.568 38.2031 149.391 38.4896 149.391 38.875C149.391 39.1562 149.479 39.4062 149.656 39.625C149.844 39.8438 150.198 40.0885 150.719 40.3594C151.25 40.6198 152.026 40.9583 153.047 41.375C154.036 41.7812 154.896 42.2083 155.625 42.6562C156.354 43.0938 156.917 43.6406 157.312 44.2969C157.708 44.9427 157.906 45.7812 157.906 46.8125ZM168.984 48.5156C169.505 48.5156 170.01 48.4635 170.5 48.3594C171 48.2552 171.495 48.125 171.984 47.9688V51.5156C171.474 51.7448 170.839 51.9323 170.078 52.0781C169.328 52.2344 168.505 52.3125 167.609 52.3125C166.568 52.3125 165.63 52.1458 164.797 51.8125C163.974 51.4688 163.323 50.8802 162.844 50.0469C162.375 49.2031 162.141 48.0312 162.141 46.5312V38.1094H159.859V36.0938L162.484 34.5L163.859 30.8125H166.906V34.5312H171.797V38.1094H166.906V46.5312C166.906 47.1979 167.094 47.6979 167.469 48.0312C167.854 48.3542 168.359 48.5156 168.984 48.5156ZM180.297 34.5312V52H175.531V34.5312H180.297ZM177.922 27.6875C178.63 27.6875 179.24 27.8542 179.75 28.1875C180.26 28.5104 180.516 29.1198 180.516 30.0156C180.516 30.901 180.26 31.5156 179.75 31.8594C179.24 32.1927 178.63 32.3594 177.922 32.3594C177.203 32.3594 176.589 32.1927 176.078 31.8594C175.578 31.5156 175.328 30.901 175.328 30.0156C175.328 29.1198 175.578 28.5104 176.078 28.1875C176.589 27.8542 177.203 27.6875 177.922 27.6875ZM194.969 38.1094H190.844V52H186.078V38.1094H183.453V35.8125L186.078 34.5312V33.25C186.078 31.7604 186.328 30.6042 186.828 29.7812C187.339 28.9479 188.052 28.3646 188.969 28.0312C189.896 27.6875 190.99 27.5156 192.25 27.5156C193.177 27.5156 194.021 27.5938 194.781 27.75C195.542 27.8958 196.161 28.0625 196.641 28.25L195.422 31.75C195.057 31.6354 194.661 31.5312 194.234 31.4375C193.807 31.3438 193.318 31.2969 192.766 31.2969C192.099 31.2969 191.609 31.5 191.297 31.9062C190.995 32.3021 190.844 32.8125 190.844 33.4375V34.5312H194.969V38.1094ZM202.469 34.5312V52H197.703V34.5312H202.469ZM200.094 27.6875C200.802 27.6875 201.411 27.8542 201.922 28.1875C202.432 28.5104 202.688 29.1198 202.688 30.0156C202.688 30.901 202.432 31.5156 201.922 31.8594C201.411 32.1927 200.802 32.3594 200.094 32.3594C199.375 32.3594 198.76 32.1927 198.25 31.8594C197.75 31.5156 197.5 30.901 197.5 30.0156C197.5 29.1198 197.75 28.5104 198.25 28.1875C198.76 27.8542 199.375 27.6875 200.094 27.6875ZM214.672 34.2031C216.286 34.2031 217.677 34.5156 218.844 35.1406C220.01 35.7552 220.911 36.651 221.547 37.8281C222.182 39.0052 222.5 40.4427 222.5 42.1406V44.4531H211.234C211.286 45.7969 211.688 46.8542 212.438 47.625C213.198 48.3854 214.25 48.7656 215.594 48.7656C216.708 48.7656 217.729 48.651 218.656 48.4219C219.583 48.1927 220.536 47.849 221.516 47.3906V51.0781C220.651 51.5052 219.745 51.8177 218.797 52.0156C217.859 52.2135 216.719 52.3125 215.375 52.3125C213.625 52.3125 212.073 51.9896 210.719 51.3438C209.375 50.6979 208.318 49.7135 207.547 48.3906C206.786 47.0677 206.406 45.401 206.406 43.3906C206.406 41.349 206.75 39.651 207.438 38.2969C208.135 36.9323 209.104 35.9115 210.344 35.2344C211.583 34.5469 213.026 34.2031 214.672 34.2031ZM214.703 37.5938C213.776 37.5938 213.005 37.8906 212.391 38.4844C211.786 39.0781 211.438 40.0104 211.344 41.2812H218.031C218.021 40.5729 217.891 39.9427 217.641 39.3906C217.401 38.8385 217.036 38.401 216.547 38.0781C216.068 37.7552 215.453 37.5938 214.703 37.5938ZM231.906 52.3125C229.958 52.3125 228.37 51.5521 227.141 50.0312C225.922 48.5 225.312 46.2552 225.312 43.2969C225.312 40.3073 225.932 38.0469 227.172 36.5156C228.411 34.974 230.031 34.2031 232.031 34.2031C232.865 34.2031 233.599 34.3177 234.234 34.5469C234.87 34.776 235.417 35.0833 235.875 35.4688C236.344 35.8542 236.74 36.2865 237.062 36.7656H237.219C237.156 36.4323 237.078 35.9427 236.984 35.2969C236.901 34.6406 236.859 33.9688 236.859 33.2812V27.6875H241.641V52H237.984L237.062 49.7344H236.859C236.557 50.2135 236.177 50.651 235.719 51.0469C235.271 51.4323 234.734 51.7396 234.109 51.9688C233.484 52.1979 232.75 52.3125 231.906 52.3125ZM233.578 48.5156C234.88 48.5156 235.797 48.1302 236.328 47.3594C236.87 46.5781 237.156 45.4062 237.188 43.8438V43.3281C237.188 41.6302 236.927 40.3333 236.406 39.4375C235.885 38.5312 234.917 38.0781 233.5 38.0781C232.448 38.0781 231.625 38.5312 231.031 39.4375C230.438 40.3438 230.141 41.651 230.141 43.3594C230.141 45.0677 230.438 46.3542 231.031 47.2188C231.635 48.0833 232.484 48.5156 233.578 48.5156Z" fill="white"/>
</svg>
